<svg xmlns="http://www.w3.org/2000/svg" viewBox="0 0 900 400" width="900" height="400">
<defs>
<defs><marker id="arrowhead" markerWidth="6" markerHeight="4" refX="5" refY="2" orient="auto"><polygon points="0 0, 6 2, 0 4" fill="#4a7fb5"/></marker></defs>
  <style>
    text { font-family: "Noto Sans KR", "AppleGothic", "Malgun Gothic", sans-serif; fill: #333333; }
  </style>
</defs>
<rect width="900" height="400" fill="#ffffff"/>
<rect x="2.0" y="2.0" width="296.0" height="196.0" fill="none" stroke="#ddd" stroke-width="1" rx="4"/>
<circle cx="18.0" cy="18.0" r="10" fill="#4a7fb5" stroke="none"/>
<text x="18.0" y="19.0" text-anchor="middle" dominant-baseline="middle" style="font-size:10px; fill:white; font-weight:700;">1</text>
<text x="34.0" y="16.0" style="font-size:10px; font-weight:700;">Step 1: ILD 증착</text>
<text x="34.0" y="28.0" style="font-size:8px; fill:#888;">Dielectric Deposition</text>
<rect x="15.0" y="154.0" width="270.0" height="29.0" fill="#c8ddf0" stroke="#a0b8d0" stroke-width="0.5"/>
<text x="150.0" y="171.5" text-anchor="middle" style="font-size:7px; fill:#6090b0;">하부층 (Lower Metal)</text>
<rect x="109.5" y="156.0" width="54.0" height="11.600000000000001" fill="#e8a030" stroke="#c08020" stroke-width="0.3" rx="1"/>
<rect x="15.0" y="67.0" width="270.0" height="87.0" fill="#e8e8e0" stroke="#c0c0b0" stroke-width="0.5"/>
<text x="150.0" y="110.5" text-anchor="middle" style="font-size:9px; fill:#999;">ILD (Low-k 유전체)</text>
<line x1="150.0" y1="55.0" x2="150.0" y2="67.0" stroke="#4a7fb5" stroke-width="1.5" marker-end="url(#arrowhead)"/>
<text x="297.0" y="100.0" style="font-size:14px; fill:#4a7fb5;" text-anchor="middle" dominant-baseline="middle">→</text>
<rect x="302.0" y="2.0" width="296.0" height="196.0" fill="none" stroke="#ddd" stroke-width="1" rx="4"/>
<circle cx="318.0" cy="18.0" r="10" fill="#4a7fb5" stroke="none"/>
<text x="318.0" y="19.0" text-anchor="middle" dominant-baseline="middle" style="font-size:10px; fill:white; font-weight:700;">2</text>
<text x="334.0" y="16.0" style="font-size:10px; font-weight:700;">Step 2: Via홀 + Trench 식각</text>
<text x="334.0" y="28.0" style="font-size:8px; fill:#888;">Photo/Etch (Via + Trench)</text>
<rect x="315.0" y="154.0" width="270.0" height="29.0" fill="#c8ddf0" stroke="#a0b8d0" stroke-width="0.5"/>
<text x="450.0" y="171.5" text-anchor="middle" style="font-size:7px; fill:#6090b0;">하부층 (Lower Metal)</text>
<rect x="409.5" y="156.0" width="54.0" height="11.600000000000001" fill="#e8a030" stroke="#c08020" stroke-width="0.3" rx="1"/>
<rect x="315.0" y="67.0" width="270.0" height="87.0" fill="#e8e8e0" stroke="#c0c0b0" stroke-width="0.5"/>
<rect x="382.5" y="67.0" width="94.5" height="34.800000000000004" fill="white" stroke="#c0c0b0" stroke-width="0.5"/>
<rect x="420.3" y="101.80000000000001" width="32.4" height="47.85" fill="white" stroke="#c0c0b0" stroke-width="0.5"/>
<text x="429.75" y="84.4" text-anchor="middle" style="font-size:7px; fill:#c06040;">Trench</text>
<text x="436.5" y="125.72500000000001" text-anchor="middle" style="font-size:6px; fill:#c06040;" transform="rotate(-90,436.5,125.72500000000001)">Via</text>
<text x="597.0" y="100.0" style="font-size:14px; fill:#4a7fb5;" text-anchor="middle" dominant-baseline="middle">→</text>
<rect x="602.0" y="2.0" width="296.0" height="196.0" fill="none" stroke="#ddd" stroke-width="1" rx="4"/>
<circle cx="618.0" cy="18.0" r="10" fill="#4a7fb5" stroke="none"/>
<text x="618.0" y="19.0" text-anchor="middle" dominant-baseline="middle" style="font-size:10px; fill:white; font-weight:700;">3</text>
<text x="634.0" y="16.0" style="font-size:10px; font-weight:700;">Step 3: 배리어 메탈 증착</text>
<text x="634.0" y="28.0" style="font-size:8px; fill:#888;">Barrier (TaN/Ta) Deposition</text>
<rect x="615.0" y="154.0" width="270.0" height="29.0" fill="#c8ddf0" stroke="#a0b8d0" stroke-width="0.5"/>
<text x="750.0" y="171.5" text-anchor="middle" style="font-size:7px; fill:#6090b0;">하부층 (Lower Metal)</text>
<rect x="709.5" y="156.0" width="54.0" height="11.600000000000001" fill="#e8a030" stroke="#c08020" stroke-width="0.3" rx="1"/>
<rect x="615.0" y="67.0" width="270.0" height="87.0" fill="#e8e8e0" stroke="#c0c0b0" stroke-width="0.5"/>
<rect x="682.5" y="67.0" width="94.5" height="34.800000000000004" fill="white" stroke="#c0c0b0" stroke-width="0.5"/>
<rect x="720.3" y="101.80000000000001" width="32.4" height="47.85" fill="white" stroke="#c0c0b0" stroke-width="0.5"/>
<rect x="682.5" y="67.0" width="3" height="34.800000000000004" fill="#a0a0d0" opacity="0.8"/>
<rect x="774.0" y="67.0" width="3" height="34.800000000000004" fill="#a0a0d0" opacity="0.8"/>
<rect x="682.5" y="98.80000000000001" width="94.5" height="3" fill="#a0a0d0" opacity="0.8"/>
<rect x="720.3" y="101.80000000000001" width="3" height="47.85" fill="#a0a0d0" opacity="0.8"/>
<rect x="749.6999999999999" y="101.80000000000001" width="3" height="47.85" fill="#a0a0d0" opacity="0.8"/>
<text x="679.5" y="84.4" text-anchor="end" style="font-size:6px; fill:#a0a0d0;">TaN/Ta</text>
<rect x="2.0" y="202.0" width="296.0" height="196.0" fill="none" stroke="#ddd" stroke-width="1" rx="4"/>
<circle cx="18.0" cy="218.0" r="10" fill="#4a7fb5" stroke="none"/>
<text x="18.0" y="219.0" text-anchor="middle" dominant-baseline="middle" style="font-size:10px; fill:white; font-weight:700;">4</text>
<text x="34.0" y="216.0" style="font-size:10px; font-weight:700;">Step 4: Cu 씨앗층 증착</text>
<text x="34.0" y="228.0" style="font-size:8px; fill:#888;">Cu Seed Layer (PVD)</text>
<rect x="15.0" y="354.0" width="270.0" height="29.0" fill="#c8ddf0" stroke="#a0b8d0" stroke-width="0.5"/>
<text x="150.0" y="371.5" text-anchor="middle" style="font-size:7px; fill:#6090b0;">하부층 (Lower Metal)</text>
<rect x="109.5" y="356.0" width="54.0" height="11.600000000000001" fill="#e8a030" stroke="#c08020" stroke-width="0.3" rx="1"/>
<rect x="15.0" y="267.0" width="270.0" height="87.0" fill="#e8e8e0" stroke="#c0c0b0" stroke-width="0.5"/>
<rect x="82.5" y="267.0" width="94.5" height="34.800000000000004" fill="white" stroke="#c0c0b0" stroke-width="0.5"/>
<rect x="120.3" y="301.8" width="32.4" height="47.85" fill="white" stroke="#c0c0b0" stroke-width="0.5"/>
<rect x="82.5" y="267.0" width="3" height="34.800000000000004" fill="#a0a0d0" opacity="0.8"/>
<rect x="174.0" y="267.0" width="3" height="34.800000000000004" fill="#a0a0d0" opacity="0.8"/>
<rect x="82.5" y="298.8" width="94.5" height="3" fill="#a0a0d0" opacity="0.8"/>
<rect x="120.3" y="301.8" width="3" height="47.85" fill="#a0a0d0" opacity="0.8"/>
<rect x="149.7" y="301.8" width="3" height="47.85" fill="#a0a0d0" opacity="0.8"/>
<rect x="85.5" y="265.0" width="2" height="33.800000000000004" fill="#e8c080" opacity="0.9"/>
<rect x="172.0" y="265.0" width="2" height="33.800000000000004" fill="#e8c080" opacity="0.9"/>
<rect x="85.5" y="296.8" width="88.5" height="2" fill="#e8c080" opacity="0.9"/>
<rect x="123.3" y="301.8" width="2" height="47.85" fill="#e8c080" opacity="0.9"/>
<rect x="147.7" y="301.8" width="2" height="47.85" fill="#e8c080" opacity="0.9"/>
<rect x="15.0" y="265.0" width="270.0" height="2" fill="#e8c080" opacity="0.7"/>
<text x="280.0" y="263.0" text-anchor="end" style="font-size:6px; fill:#c09030;">Cu Seed</text>
<text x="297.0" y="300.0" style="font-size:14px; fill:#4a7fb5;" text-anchor="middle" dominant-baseline="middle">→</text>
<rect x="302.0" y="202.0" width="296.0" height="196.0" fill="none" stroke="#ddd" stroke-width="1" rx="4"/>
<circle cx="318.0" cy="218.0" r="10" fill="#4a7fb5" stroke="none"/>
<text x="318.0" y="219.0" text-anchor="middle" dominant-baseline="middle" style="font-size:10px; fill:white; font-weight:700;">5</text>
<text x="334.0" y="216.0" style="font-size:10px; font-weight:700;">Step 5: Cu 전기도금</text>
<text x="334.0" y="228.0" style="font-size:8px; fill:#888;">Cu Electroplating</text>
<rect x="315.0" y="354.0" width="270.0" height="29.0" fill="#c8ddf0" stroke="#a0b8d0" stroke-width="0.5"/>
<text x="450.0" y="371.5" text-anchor="middle" style="font-size:7px; fill:#6090b0;">하부층 (Lower Metal)</text>
<rect x="409.5" y="356.0" width="54.0" height="11.600000000000001" fill="#e8a030" stroke="#c08020" stroke-width="0.3" rx="1"/>
<rect x="315.0" y="267.0" width="270.0" height="87.0" fill="#e8e8e0" stroke="#c0c0b0" stroke-width="0.5"/>
<rect x="382.5" y="267.0" width="94.5" height="34.800000000000004" fill="#e8a030"/>
<rect x="420.3" y="301.8" width="32.4" height="47.85" fill="#e8a030"/>
<rect x="315.0" y="255.0" width="270.0" height="12" fill="#e8a030" stroke="#c08020" stroke-width="0.5" opacity="0.85"/>
<ellipse cx="429.75" cy="255.0" rx="56.699999999999996" ry="5" fill="#e8a030" stroke="#c08020" stroke-width="0.3"/>
<text x="450.0" y="250.0" text-anchor="middle" style="font-size:7px; fill:#c08020;">여분 Cu (Overburden)</text>
<text x="597.0" y="300.0" style="font-size:14px; fill:#4a7fb5;" text-anchor="middle" dominant-baseline="middle">→</text>
<rect x="602.0" y="202.0" width="296.0" height="196.0" fill="none" stroke="#ddd" stroke-width="1" rx="4"/>
<circle cx="618.0" cy="218.0" r="10" fill="#4a7fb5" stroke="none"/>
<text x="618.0" y="219.0" text-anchor="middle" dominant-baseline="middle" style="font-size:10px; fill:white; font-weight:700;">6</text>
<text x="634.0" y="216.0" style="font-size:10px; font-weight:700;">Step 6: CMP 평탄화</text>
<text x="634.0" y="228.0" style="font-size:8px; fill:#888;">CMP Planarization</text>
<rect x="615.0" y="354.0" width="270.0" height="29.0" fill="#c8ddf0" stroke="#a0b8d0" stroke-width="0.5"/>
<text x="750.0" y="371.5" text-anchor="middle" style="font-size:7px; fill:#6090b0;">하부층 (Lower Metal)</text>
<rect x="709.5" y="356.0" width="54.0" height="11.600000000000001" fill="#e8a030" stroke="#c08020" stroke-width="0.3" rx="1"/>
<rect x="615.0" y="267.0" width="270.0" height="87.0" fill="#e8e8e0" stroke="#c0c0b0" stroke-width="0.5"/>
<rect x="682.5" y="267.0" width="94.5" height="34.800000000000004" fill="#e8a030" stroke="#c08020" stroke-width="0.3"/>
<rect x="720.3" y="301.8" width="32.4" height="47.85" fill="#e8a030" stroke="#c08020" stroke-width="0.3"/>
<line x1="610.0" y1="267.0" x2="890.0" y2="267.0" stroke="#5de85d" stroke-width="2" stroke-dasharray="4,2"/>
<text x="890.0" y="264.0" text-anchor="end" style="font-size:7px; fill:#4ab84a;">CMP 연마면</text>
<text x="729.75" y="287.4" text-anchor="middle" style="font-size:7px; fill:white; font-weight:600;">Cu 배선</text>
<text x="736.5" y="325.725" text-anchor="middle" style="font-size:5px; fill:white;" transform="rotate(-90,736.5,325.725)">Via</text>
<path d="M750.0,199.0 L750.0,202.0 L15,202.0 L15,215.0" fill="none" stroke="#4a7fb5" stroke-width="1.5" marker-end="url(#arrowhead)"/>
</svg>