<?xml version="1.0" encoding="UTF-8"?>
<svg xmlns="http://www.w3.org/2000/svg" viewBox="0 0 800 350" width="800" height="350" font-family="'Apple SD Gothic Neo', 'Nanum Gothic', sans-serif">
  <defs>
    <marker id="arrow" viewBox="0 0 10 7" refX="10" refY="3.5"
      markerWidth="6" markerHeight="4.2" orient="auto">
      <polygon points="0 0, 10 3.5, 0 7" fill="#333333"/>
    </marker>
    <filter id="shadow" x="-5%" y="-5%" width="110%" height="115%">
      <feDropShadow dx="1" dy="2" stdDeviation="2" flood-opacity="0.12"/>
    </filter>
    <linearGradient id="phys_grad" x1="0" y1="0" x2="0" y2="1">
      <stop offset="0%" stop-color="#5ba0e8"/>
      <stop offset="100%" stop-color="#4a90d9"/>
    </linearGradient>
    <linearGradient id="ml_grad" x1="0" y1="0" x2="0" y2="1">
      <stop offset="0%" stop-color="#f06b6b"/>
      <stop offset="100%" stop-color="#e85d5d"/>
    </linearGradient>
  </defs>
  
  <!-- Background -->
  <rect width="800" height="350" fill="#fafbfc" rx="8"/>
  
  <!-- Title -->
  <text x="400" y="25" text-anchor="middle" font-size="16" font-weight="bold" fill="#222">Physics-Informed ьЋўВЮ┤вИївдгвЊю вфевЇИ ЖхгВА░ (Inference)</text>
  <text x="400" y="42" text-anchor="middle" font-size="11" fill="#777">┼и = Physics(X) + ML_Residual(X)</text>
  
  <!-- ===== INPUT BLOCK ===== -->
  <!-- x=40, w=100, CenterY=175 -->
  <rect x="40" y="135" width="100" height="80" rx="8" fill="#f39c12" filter="url(#shadow)"/>
  <text x="90" y="165" text-anchor="middle" font-size="12" font-weight="bold" fill="white">ВъЁваЦ (X)</text>
  <text x="90" y="182" text-anchor="middle" font-size="9" fill="white">Вё╝Вёю вЇ░ВЮ┤ьё░</text>
  <text x="90" y="196" text-anchor="middle" font-size="9" fill="white">Ж│хВаЋ ьїївЮ╝в»Иьё░</text>
  
  <!-- Arrow: Input(140) -> Split(155) -->
  <line x1="140" y1="175" x2="155" y2="175" stroke="#333" stroke-width="2" marker-end="url(#arrow)"/>
  
  <!-- Split Point -->
  <circle cx="160" cy="175" r="5" fill="#333"/>
  
  <!-- ===== UPPER PATH (PHYSICS) ===== -->
  <!-- Split(160,170) -> Physics(190,90) -->
  <path d="M 160 170 L 160 90 L 190 90" fill="none" stroke="#333" stroke-width="1.8" marker-end="url(#arrow)"/>
  
  <!-- Physics Block: x=190, w=140 -->
  <rect x="190" y="50" width="140" height="80" rx="8" fill="url(#phys_grad)" filter="url(#shadow)"/>
  <text x="260" y="72" text-anchor="middle" font-size="11" font-weight="bold" fill="white">вг╝вдг вфевЇИ</text>
  <line x1="205" y1="78" x2="315" y2="78" stroke="rgba(255,255,255,0.4)" stroke-width="0.8"/>
  <text x="260" y="93" text-anchor="middle" font-size="9" fill="rgba(255,255,255,0.95)">Rayleigh в░ЕВаЋВІЮ</text>
  <text x="260" y="106" text-anchor="middle" font-size="9" fill="rgba(255,255,255,0.95)">Dose-CD Ж┤ђЖ│ё</text>
  <text x="260" y="119" text-anchor="middle" font-size="9" fill="rgba(255,255,255,0.95)">OVL ВёаьўЋ вфевЇИ</text>
  
  <!-- Arrow: Physics(330) -> y_physics(360) -->
  <line x1="330" y1="90" x2="360" y2="90" stroke="#333" stroke-width="1.8" marker-end="url(#arrow)"/>
  
  <!-- y_physics: x=360, w=80 -->
  <rect x="360" y="70" width="80" height="40" rx="6" fill="white" stroke="#4a90d9" stroke-width="2"/>
  <text x="400" y="90" text-anchor="middle" font-size="10" font-weight="bold" fill="#4a90d9">┼и_physics</text>
  <text x="400" y="103" text-anchor="middle" font-size="8" fill="#888">вг╝вдг ВўѕВИА</text>
  
  <!-- Arrow: y_physics(440) -> Sum(605) -->
  <path d="M 440 90 L 580 90 L 580 175 L 605 175" fill="none" stroke="#333" stroke-width="1.8" marker-end="url(#arrow)"/>
  
  <!-- ===== LOWER PATH (ML) - CORRECTED ===== -->
  <!-- Split(160,180) -> ML Input(190,260) - Direct Connection -->
  <!-- Removed Residual Calculation Block -->
  
  <path d="M 160 180 L 160 260 L 360 260" fill="none" stroke="#333" stroke-width="1.8" marker-end="url(#arrow)"/>
  
  <!-- ML Block: x=360, w=110 -->
  <rect x="360" y="225" width="110" height="70" rx="8" fill="url(#ml_grad)" filter="url(#shadow)"/>
  <text x="415" y="250" text-anchor="middle" font-size="11" font-weight="bold" fill="white">ML вфевЇИ</text>
  <line x1="375" y1="257" x2="455" y2="257" stroke="rgba(255,255,255,0.4)" stroke-width="0.8"/>
  <text x="415" y="272" text-anchor="middle" font-size="9" fill="rgba(255,255,255,0.95)">XGBoost / NN</text>
  <text x="415" y="285" text-anchor="middle" font-size="9" fill="rgba(255,255,255,0.85)">ВъћВ░е ВўѕВИА</text>
  
  <!-- Arrow: ML(470) -> y_residual(490) -->
  <line x1="470" y1="260" x2="490" y2="260" stroke="#333" stroke-width="1.8" marker-end="url(#arrow)"/>
  
  <!-- y_residual: x=490, w=70 -->
  <rect x="490" y="240" width="70" height="40" rx="6" fill="white" stroke="#e85d5d" stroke-width="2"/>
  <text x="525" y="260" text-anchor="middle" font-size="10" font-weight="bold" fill="#e85d5d">┼и_residual</text>
  <text x="525" y="273" text-anchor="middle" font-size="8" fill="#888">ВўѕВИА ВъћВ░е</text>
  
  <!-- Arrow: y_residual(560) -> Sum(605) -->
  <path d="M 560 260 L 580 260 L 580 175" fill="none" stroke="#333" stroke-width="1.8"/>
  
  <!-- ===== SUM BLOCK ===== -->
  <!-- cx=630, r=25. Left=605 -->
  <circle cx="630" cy="175" r="25" fill="#9b59b6" filter="url(#shadow)"/>
  <text x="630" y="180" text-anchor="middle" font-size="22" font-weight="bold" fill="white">╬Б</text>
  
  <!-- Arrow: Sum(655) -> Final(680) -->
  <line x1="655" y1="175" x2="680" y2="175" stroke="#333" stroke-width="2" marker-end="url(#arrow)"/>
  
  <!-- ===== FINAL OUTPUT ===== -->
  <!-- x=680, w=80 -->
  <rect x="680" y="140" width="80" height="70" rx="8" fill="#2ecc71" filter="url(#shadow)"/>
  <text x="720" y="167" text-anchor="middle" font-size="11" font-weight="bold" fill="white">ВхюВбЁ ВХюваЦ</text>
  <text x="720" y="184" text-anchor="middle" font-size="9" fill="rgba(255,255,255,0.95)">┼и_final</text>
  <text x="720" y="198" text-anchor="middle" font-size="8" fill="rgba(255,255,255,0.85)">CD / OVL</text>
  
  <!-- ===== ANNOTATIONS ===== -->
  <g transform="translate(0, 5)">
    <!-- Physics Annotation -->
    <rect x="190" y="305" width="220" height="35" rx="4" fill="#eaf2fb" stroke="#4a90d9" stroke-width="1"/>
    <text x="200" y="320" font-size="9" font-weight="bold" fill="#4a90d9">­Ъћх вг╝вдг вфевЇИ</text>
    <text x="200" y="333" font-size="8.5" fill="#555">вЈёвЕћВЮИ ВДђВІЮ, ьї╣ Ж░ё Ж│хьєх Ж│еЖ▓Е</text>
    
    <!-- ML Annotation -->
    <rect x="420" y="305" width="220" height="35" rx="4" fill="#fdeaea" stroke="#e85d5d" stroke-width="1"/>
    <text x="430" y="320" font-size="9" font-weight="bold" fill="#e85d5d">­Ъћ┤ ML вфевЇИ</text>
    <text x="430" y="333" font-size="8.5" fill="#555">вг╝вдг вфевЇИВЮ┤ ВёцвфЁ вф╗ьЋўвіћ ВўцВ░е в│┤ВаЋ</text>
  </g>
</svg>