<?xml version="1.0" encoding="UTF-8"?>
<svg xmlns="http://www.w3.org/2000/svg" viewBox="0 0 900 500" width="900" height="500">
  <defs>
    <style>
      @import url('https://fonts.googleapis.com/css2?family=Noto+Sans+KR:wght@400;600;700&amp;display=swap');
      text { font-family: 'Noto Sans KR', 'Apple SD Gothic Neo', 'Malgun Gothic', sans-serif; }
    </style>
    <marker id="arrowR" markerWidth="10" markerHeight="7" refX="10" refY="3.5" orient="auto">
      <polygon points="0 0, 10 3.5, 0 7" fill="#27AE60"/>
    </marker>
    <marker id="arrowL" markerWidth="10" markerHeight="7" refX="0" refY="3.5" orient="auto">
      <polygon points="10 0, 0 3.5, 10 7" fill="#27AE60"/>
    </marker>
  </defs>

  <!-- Background -->
  <rect width="900" height="500" fill="#FFFFFF" rx="8"/>

  <!-- Title -->
  <text x="450" y="35" text-anchor="middle" font-size="18" font-weight="700" fill="#2C3E50">관리 한계(Control Limit) vs 규격 한계(Spec Limit)</text>

  <!-- Spec limits bracket (above) -->
  <line x1="170" y1="58" x2="730" y2="58" stroke="#8E44AD" stroke-width="2.5"/>
  <line x1="170" y1="52" x2="170" y2="64" stroke="#8E44AD" stroke-width="2.5"/>
  <line x1="730" y1="52" x2="730" y2="64" stroke="#8E44AD" stroke-width="2.5"/>
  <text x="450" y="80" text-anchor="middle" font-size="12" fill="#8E44AD" font-weight="600">
    <tspan x="450" dy="0">규격 한계 (설계/고객이 정함) — 양품 판정 기준</tspan>
  </text>

  <!-- Distribution fill -->
  <path d="M 100,220 L 100,219.99932920242904 L 102,219.99922650717926 L 104,219.99910881767025 L 106,219.99897405915507 L 108,219.99881988712693 L 110,219.99864365475506 L 112,219.998442376738 L 114,219.99821268922494 L 116,219.997950805429 L 118,219.99765246652677 L 120,219.99731288740622 L 122,219.99692669679348 L 124,219.99648787125412 L 126,219.9959896625288 L 128,219.99542451762707 L 130,219.99478399106283 L 132,219.99405864857772 L 134,219.99323796165606 L 136,219.99231019209515 L 138,219.99126226585088 L 140,219.9900796353381 L 142,219.98874612932053 L 144,219.98724378948378 L 146,219.98555269274237 L 148,219.98365075829076 L 150,219.98151353836846 L 152,219.97911399167162 L 154,219.97642223830783 L 156,219.97340529515824 L 158,219.97002679048236 L 160,219.96624665657652 L 162,219.96202079927687 L 164,219.95730074308486 L 166,219.95203325068601 L 168,219.94615991563347 L 170,219.93961672697756 L 172,219.932333604641 L 174,219.92423390437 L 176,219.9152338911316 L 178,219.90524217988326 L 180,219.89415914270717 L 182,219.88187628138687 L 184,219.8682755646015 L 186,219.85322872903154 L 188,219.83659654380375 L 190,219.8182280378597 L 192,219.7979596900071 L 194,219.77561458161082 L 196,219.7510015121014 L 198,219.7239140777216 L 200,219.69412971420053 L 202,219.6614087043371 L 204,219.6254931517934 L 206,219.5861059227419 L 208,219.54294955738087 L 210,219.49570515372727 L 212,219.44403122651738 L 214,219.38756254449123 L 216,219.32590894980623 L 218,219.2586541638183 L 220,219.185354583982 L 222,219.1055380771554 L 224,219.0187027751458 L 226,218.92431587889894 L 228,218.82181247831136 L 230,218.71059439523455 L 232,218.59002905782927 L 234,218.45944841502396 L 236,218.31814790041994 L 238,218.16538545556892 L 240,218.00038062311637 L 242,217.82231372085522 L 244,217.63032510825744 L 246,217.42351455754672 L 248,217.2009407418301 L 250,216.96162085321782 L 252,216.70453036422055 L 254,216.42860294601334 L 256,216.13273055738938 L 258,215.81576371838685 L 260,215.4765119826506 L 262,215.1137446225798 L 264,214.72619154120596 L 266,214.3125444245357 L 268,213.87145814777213 L 270,213.40155244839195 L 272,212.90141387849565 L 274,212.3695980481604 L 276,211.8046321707058 L 278,211.2050179198241 L 280,210.56923460743138 L 282,209.89574268985592 L 284,209.18298760859824 L 286,208.42940397037268 L 288,207.6334200694721 L 290,206.79346275369107 L 292,205.90796263310006 L 294,204.97535962889 L 296,203.99410885731047 L 298,202.96268684141103 L 300,201.8795980408784 L 302,200.74338168774818 L 304,199.55261891317642 L 306,198.30594014779314 L 308,197.00203277544816 L 310,195.6396490174097 L 312,194.21761402131557 L 314,192.73483412641497 L 316,191.1903052739081 L 318,189.58312152850246 L 320,187.91248367469137 L 322,186.1777078487383 L 324,184.37823416494936 L 326,182.5136352925579 L 328,180.58362493745645 L 330,178.58806618111436 L 332,176.52697962734317 L 334,174.40055130613595 L 336,172.20914028263797 L 338,169.95328591842508 L 340,167.63371473169332 L 342,165.25134680272276 L 344,162.80730167107853 L 346,160.30290367148098 L 348,157.739686656117 L 350,155.11939805239223 L 352,152.44400220674808 L 354,149.71568296718976 L 356,146.9368454595968 L 358,144.11011701571516 L 360,141.23834721395156 L 362,138.32460699770513 L 364,135.37218683995877 L 366,132.38459392720512 L 368,129.36554834047774 L 370,126.31897821627362 L 372,123.24901387546535 L 374,120.1599809138797 L 376,117.0563922540321 L 378,113.942939163517 L 380,110.82448125172598 L 382,107.70603546285658 L 384,104.59276408954216 L 386,101.48996183783221 L 388,98.40304198063629 L 390,95.33752164306439 L 392,92.29900626930605 L 394,89.29317332673565 L 396,86.32575530876974 L 398,83.4025221035773 L 400,80.52926280101511 L 402,77.71176701507613 L 404,74.95580580365643 L 406,72.26711227152427 L 408,69.65136194597105 L 410,67.11415301770376 L 412,64.66098654206957 L 414,62.29724669765238 L 416,60.028181200629575 L 418,57.85888197399797 L 420,55.794266170861874 L 422,53.83905765040555 L 424,51.9977690039502 L 426,50.274684226612266 L 428,48.67384212755033 L 430,47.199020568614 L 432,45.85372161741299 L 434,44.64115769642481 L 436,43.564238804784054 L 438,42.62556088387606 L 440,41.827395391827906 L 442,41.17168014549321 L 444,40.66001148160581 L 446,40.29363778148334 L 448,40.07345439604225 L 450,40.0 L 452,40.07345439604225 L 454,40.29363778148334 L 456,40.66001148160581 L 458,41.17168014549321 L 460,41.827395391827906 L 462,42.62556088387606 L 464,43.564238804784054 L 466,44.64115769642481 L 468,45.85372161741299 L 470,47.199020568614 L 472,48.67384212755033 L 474,50.274684226612266 L 476,51.9977690039502 L 478,53.83905765040555 L 480,55.794266170861874 L 482,57.85888197399797 L 484,60.028181200629575 L 486,62.29724669765238 L 488,64.66098654206957 L 490,67.11415301770376 L 492,69.65136194597105 L 494,72.26711227152427 L 496,74.95580580365643 L 498,77.71176701507613 L 500,80.52926280101511 L 502,83.4025221035773 L 504,86.32575530876974 L 506,89.29317332673565 L 508,92.29900626930605 L 510,95.33752164306439 L 512,98.40304198063629 L 514,101.48996183783221 L 516,104.59276408954216 L 518,107.70603546285658 L 520,110.82448125172598 L 522,113.942939163517 L 524,117.0563922540321 L 526,120.1599809138797 L 528,123.24901387546535 L 530,126.31897821627362 L 532,129.36554834047774 L 534,132.38459392720512 L 536,135.37218683995877 L 538,138.32460699770513 L 540,141.23834721395156 L 542,144.11011701571516 L 544,146.9368454595968 L 546,149.71568296718976 L 548,152.44400220674808 L 550,155.11939805239223 L 552,157.739686656117 L 554,160.30290367148098 L 556,162.80730167107853 L 558,165.25134680272276 L 560,167.63371473169332 L 562,169.95328591842508 L 564,172.20914028263797 L 566,174.40055130613595 L 568,176.52697962734317 L 570,178.58806618111436 L 572,180.58362493745645 L 574,182.5136352925579 L 576,184.37823416494936 L 578,186.1777078487383 L 580,187.91248367469137 L 582,189.58312152850246 L 584,191.1903052739081 L 586,192.73483412641497 L 588,194.21761402131557 L 590,195.6396490174097 L 592,197.00203277544816 L 594,198.30594014779314 L 596,199.55261891317642 L 598,200.74338168774818 L 600,201.8795980408784 L 602,202.96268684141103 L 604,203.99410885731047 L 606,204.97535962889 L 608,205.90796263310006 L 610,206.79346275369107 L 612,207.6334200694721 L 614,208.42940397037268 L 616,209.18298760859824 L 618,209.89574268985592 L 620,210.56923460743138 L 622,211.2050179198241 L 624,211.8046321707058 L 626,212.3695980481604 L 628,212.90141387849565 L 630,213.40155244839195 L 632,213.87145814777213 L 634,214.3125444245357 L 636,214.72619154120596 L 638,215.1137446225798 L 640,215.4765119826506 L 642,215.81576371838685 L 644,216.13273055738938 L 646,216.42860294601334 L 648,216.70453036422055 L 650,216.96162085321782 L 652,217.2009407418301 L 654,217.42351455754672 L 656,217.63032510825744 L 658,217.82231372085522 L 660,218.00038062311637 L 662,218.16538545556892 L 664,218.31814790041994 L 666,218.45944841502396 L 668,218.59002905782927 L 670,218.71059439523455 L 672,218.82181247831136 L 674,218.92431587889894 L 676,219.0187027751458 L 678,219.1055380771554 L 680,219.185354583982 L 682,219.2586541638183 L 684,219.32590894980623 L 686,219.38756254449123 L 688,219.44403122651738 L 690,219.49570515372727 L 692,219.54294955738087 L 694,219.5861059227419 L 696,219.6254931517934 L 698,219.6614087043371 L 700,219.69412971420053 L 702,219.7239140777216 L 704,219.7510015121014 L 706,219.77561458161082 L 708,219.7979596900071 L 710,219.8182280378597 L 712,219.83659654380375 L 714,219.85322872903154 L 716,219.8682755646015 L 718,219.88187628138687 L 720,219.89415914270717 L 722,219.90524217988326 L 724,219.9152338911316 L 726,219.92423390437 L 728,219.932333604641 L 730,219.93961672697756 L 732,219.94615991563347 L 734,219.95203325068601 L 736,219.95730074308486 L 738,219.96202079927687 L 740,219.96624665657652 L 742,219.97002679048236 L 744,219.97340529515824 L 746,219.97642223830783 L 748,219.97911399167162 L 750,219.98151353836846 L 752,219.98365075829076 L 754,219.98555269274237 L 756,219.98724378948378 L 758,219.98874612932053 L 760,219.9900796353381 L 762,219.99126226585088 L 764,219.99231019209515 L 766,219.99323796165606 L 768,219.99405864857772 L 770,219.99478399106283 L 772,219.99542451762707 L 774,219.9959896625288 L 776,219.99648787125412 L 778,219.99692669679348 L 780,219.99731288740622 L 782,219.99765246652677 L 784,219.997950805429 L 786,219.99821268922494 L 788,219.998442376738 L 790,219.99864365475506 L 792,219.99881988712693 L 794,219.99897405915507 L 796,219.99910881767025 L 798,219.99922650717926 L 800,219.99932920242904 L 800,220 Z" fill="#3498DB" fill-opacity="0.3"/>

  <!-- Distribution curve -->
  <path d="M 100,219.99932920242904 L 102,219.99922650717926 L 104,219.99910881767025 L 106,219.99897405915507 L 108,219.99881988712693 L 110,219.99864365475506 L 112,219.998442376738 L 114,219.99821268922494 L 116,219.997950805429 L 118,219.99765246652677 L 120,219.99731288740622 L 122,219.99692669679348 L 124,219.99648787125412 L 126,219.9959896625288 L 128,219.99542451762707 L 130,219.99478399106283 L 132,219.99405864857772 L 134,219.99323796165606 L 136,219.99231019209515 L 138,219.99126226585088 L 140,219.9900796353381 L 142,219.98874612932053 L 144,219.98724378948378 L 146,219.98555269274237 L 148,219.98365075829076 L 150,219.98151353836846 L 152,219.97911399167162 L 154,219.97642223830783 L 156,219.97340529515824 L 158,219.97002679048236 L 160,219.96624665657652 L 162,219.96202079927687 L 164,219.95730074308486 L 166,219.95203325068601 L 168,219.94615991563347 L 170,219.93961672697756 L 172,219.932333604641 L 174,219.92423390437 L 176,219.9152338911316 L 178,219.90524217988326 L 180,219.89415914270717 L 182,219.88187628138687 L 184,219.8682755646015 L 186,219.85322872903154 L 188,219.83659654380375 L 190,219.8182280378597 L 192,219.7979596900071 L 194,219.77561458161082 L 196,219.7510015121014 L 198,219.7239140777216 L 200,219.69412971420053 L 202,219.6614087043371 L 204,219.6254931517934 L 206,219.5861059227419 L 208,219.54294955738087 L 210,219.49570515372727 L 212,219.44403122651738 L 214,219.38756254449123 L 216,219.32590894980623 L 218,219.2586541638183 L 220,219.185354583982 L 222,219.1055380771554 L 224,219.0187027751458 L 226,218.92431587889894 L 228,218.82181247831136 L 230,218.71059439523455 L 232,218.59002905782927 L 234,218.45944841502396 L 236,218.31814790041994 L 238,218.16538545556892 L 240,218.00038062311637 L 242,217.82231372085522 L 244,217.63032510825744 L 246,217.42351455754672 L 248,217.2009407418301 L 250,216.96162085321782 L 252,216.70453036422055 L 254,216.42860294601334 L 256,216.13273055738938 L 258,215.81576371838685 L 260,215.4765119826506 L 262,215.1137446225798 L 264,214.72619154120596 L 266,214.3125444245357 L 268,213.87145814777213 L 270,213.40155244839195 L 272,212.90141387849565 L 274,212.3695980481604 L 276,211.8046321707058 L 278,211.2050179198241 L 280,210.56923460743138 L 282,209.89574268985592 L 284,209.18298760859824 L 286,208.42940397037268 L 288,207.6334200694721 L 290,206.79346275369107 L 292,205.90796263310006 L 294,204.97535962889 L 296,203.99410885731047 L 298,202.96268684141103 L 300,201.8795980408784 L 302,200.74338168774818 L 304,199.55261891317642 L 306,198.30594014779314 L 308,197.00203277544816 L 310,195.6396490174097 L 312,194.21761402131557 L 314,192.73483412641497 L 316,191.1903052739081 L 318,189.58312152850246 L 320,187.91248367469137 L 322,186.1777078487383 L 324,184.37823416494936 L 326,182.5136352925579 L 328,180.58362493745645 L 330,178.58806618111436 L 332,176.52697962734317 L 334,174.40055130613595 L 336,172.20914028263797 L 338,169.95328591842508 L 340,167.63371473169332 L 342,165.25134680272276 L 344,162.80730167107853 L 346,160.30290367148098 L 348,157.739686656117 L 350,155.11939805239223 L 352,152.44400220674808 L 354,149.71568296718976 L 356,146.9368454595968 L 358,144.11011701571516 L 360,141.23834721395156 L 362,138.32460699770513 L 364,135.37218683995877 L 366,132.38459392720512 L 368,129.36554834047774 L 370,126.31897821627362 L 372,123.24901387546535 L 374,120.1599809138797 L 376,117.0563922540321 L 378,113.942939163517 L 380,110.82448125172598 L 382,107.70603546285658 L 384,104.59276408954216 L 386,101.48996183783221 L 388,98.40304198063629 L 390,95.33752164306439 L 392,92.29900626930605 L 394,89.29317332673565 L 396,86.32575530876974 L 398,83.4025221035773 L 400,80.52926280101511 L 402,77.71176701507613 L 404,74.95580580365643 L 406,72.26711227152427 L 408,69.65136194597105 L 410,67.11415301770376 L 412,64.66098654206957 L 414,62.29724669765238 L 416,60.028181200629575 L 418,57.85888197399797 L 420,55.794266170861874 L 422,53.83905765040555 L 424,51.9977690039502 L 426,50.274684226612266 L 428,48.67384212755033 L 430,47.199020568614 L 432,45.85372161741299 L 434,44.64115769642481 L 436,43.564238804784054 L 438,42.62556088387606 L 440,41.827395391827906 L 442,41.17168014549321 L 444,40.66001148160581 L 446,40.29363778148334 L 448,40.07345439604225 L 450,40.0 L 452,40.07345439604225 L 454,40.29363778148334 L 456,40.66001148160581 L 458,41.17168014549321 L 460,41.827395391827906 L 462,42.62556088387606 L 464,43.564238804784054 L 466,44.64115769642481 L 468,45.85372161741299 L 470,47.199020568614 L 472,48.67384212755033 L 474,50.274684226612266 L 476,51.9977690039502 L 478,53.83905765040555 L 480,55.794266170861874 L 482,57.85888197399797 L 484,60.028181200629575 L 486,62.29724669765238 L 488,64.66098654206957 L 490,67.11415301770376 L 492,69.65136194597105 L 494,72.26711227152427 L 496,74.95580580365643 L 498,77.71176701507613 L 500,80.52926280101511 L 502,83.4025221035773 L 504,86.32575530876974 L 506,89.29317332673565 L 508,92.29900626930605 L 510,95.33752164306439 L 512,98.40304198063629 L 514,101.48996183783221 L 516,104.59276408954216 L 518,107.70603546285658 L 520,110.82448125172598 L 522,113.942939163517 L 524,117.0563922540321 L 526,120.1599809138797 L 528,123.24901387546535 L 530,126.31897821627362 L 532,129.36554834047774 L 534,132.38459392720512 L 536,135.37218683995877 L 538,138.32460699770513 L 540,141.23834721395156 L 542,144.11011701571516 L 544,146.9368454595968 L 546,149.71568296718976 L 548,152.44400220674808 L 550,155.11939805239223 L 552,157.739686656117 L 554,160.30290367148098 L 556,162.80730167107853 L 558,165.25134680272276 L 560,167.63371473169332 L 562,169.95328591842508 L 564,172.20914028263797 L 566,174.40055130613595 L 568,176.52697962734317 L 570,178.58806618111436 L 572,180.58362493745645 L 574,182.5136352925579 L 576,184.37823416494936 L 578,186.1777078487383 L 580,187.91248367469137 L 582,189.58312152850246 L 584,191.1903052739081 L 586,192.73483412641497 L 588,194.21761402131557 L 590,195.6396490174097 L 592,197.00203277544816 L 594,198.30594014779314 L 596,199.55261891317642 L 598,200.74338168774818 L 600,201.8795980408784 L 602,202.96268684141103 L 604,203.99410885731047 L 606,204.97535962889 L 608,205.90796263310006 L 610,206.79346275369107 L 612,207.6334200694721 L 614,208.42940397037268 L 616,209.18298760859824 L 618,209.89574268985592 L 620,210.56923460743138 L 622,211.2050179198241 L 624,211.8046321707058 L 626,212.3695980481604 L 628,212.90141387849565 L 630,213.40155244839195 L 632,213.87145814777213 L 634,214.3125444245357 L 636,214.72619154120596 L 638,215.1137446225798 L 640,215.4765119826506 L 642,215.81576371838685 L 644,216.13273055738938 L 646,216.42860294601334 L 648,216.70453036422055 L 650,216.96162085321782 L 652,217.2009407418301 L 654,217.42351455754672 L 656,217.63032510825744 L 658,217.82231372085522 L 660,218.00038062311637 L 662,218.16538545556892 L 664,218.31814790041994 L 666,218.45944841502396 L 668,218.59002905782927 L 670,218.71059439523455 L 672,218.82181247831136 L 674,218.92431587889894 L 676,219.0187027751458 L 678,219.1055380771554 L 680,219.185354583982 L 682,219.2586541638183 L 684,219.32590894980623 L 686,219.38756254449123 L 688,219.44403122651738 L 690,219.49570515372727 L 692,219.54294955738087 L 694,219.5861059227419 L 696,219.6254931517934 L 698,219.6614087043371 L 700,219.69412971420053 L 702,219.7239140777216 L 704,219.7510015121014 L 706,219.77561458161082 L 708,219.7979596900071 L 710,219.8182280378597 L 712,219.83659654380375 L 714,219.85322872903154 L 716,219.8682755646015 L 718,219.88187628138687 L 720,219.89415914270717 L 722,219.90524217988326 L 724,219.9152338911316 L 726,219.92423390437 L 728,219.932333604641 L 730,219.93961672697756 L 732,219.94615991563347 L 734,219.95203325068601 L 736,219.95730074308486 L 738,219.96202079927687 L 740,219.96624665657652 L 742,219.97002679048236 L 744,219.97340529515824 L 746,219.97642223830783 L 748,219.97911399167162 L 750,219.98151353836846 L 752,219.98365075829076 L 754,219.98555269274237 L 756,219.98724378948378 L 758,219.98874612932053 L 760,219.9900796353381 L 762,219.99126226585088 L 764,219.99231019209515 L 766,219.99323796165606 L 768,219.99405864857772 L 770,219.99478399106283 L 772,219.99542451762707 L 774,219.9959896625288 L 776,219.99648787125412 L 778,219.99692669679348 L 780,219.99731288740622 L 782,219.99765246652677 L 784,219.997950805429 L 786,219.99821268922494 L 788,219.998442376738 L 790,219.99864365475506 L 792,219.99881988712693 L 794,219.99897405915507 L 796,219.99910881767025 L 798,219.99922650717926 L 800,219.99932920242904" fill="none" stroke="#3498DB" stroke-width="2.5"/>

  <!-- Baseline -->
  <line x1="100" y1="220" x2="800" y2="220" stroke="#BDC3C7" stroke-width="1"/>

  <!-- CL (μ) -->
  <line x1="450" y1="30" x2="450" y2="220" stroke="#2C3E50" stroke-width="2"/>
  <text x="450" y="25" text-anchor="middle" font-size="13" font-weight="600" fill="#2C3E50">CL (μ)</text>

  <!-- UCL -->
  <line x1="660" y1="200" x2="660" y2="220" stroke="#E74C3C" stroke-width="1.5" stroke-dasharray="6,4"/>
  <line x1="660" y1="200" x2="660" y2="95" stroke="#E74C3C" stroke-width="1.5" stroke-dasharray="6,4"/>
  <text x="660" y="235" text-anchor="middle" font-size="11" fill="#E74C3C" font-weight="600">UCL (μ+3σ)</text>

  <!-- LCL -->
  <line x1="240" y1="200" x2="240" y2="220" stroke="#E74C3C" stroke-width="1.5" stroke-dasharray="6,4"/>
  <line x1="240" y1="200" x2="240" y2="95" stroke="#E74C3C" stroke-width="1.5" stroke-dasharray="6,4"/>
  <text x="240" y="235" text-anchor="middle" font-size="11" fill="#E74C3C" font-weight="600">LCL (μ-3σ)</text>

  <!-- USL -->
  <line x1="730" y1="55" x2="730" y2="220" stroke="#8E44AD" stroke-width="2"/>
  <text x="735" y="110" text-anchor="start" font-size="12" fill="#8E44AD" font-weight="600">USL</text>
  <text x="735" y="125" text-anchor="start" font-size="10" fill="#8E44AD">(규격 상한)</text>

  <!-- LSL -->
  <line x1="170" y1="55" x2="170" y2="220" stroke="#8E44AD" stroke-width="2"/>
  <text x="165" y="110" text-anchor="end" font-size="12" fill="#8E44AD" font-weight="600">LSL</text>
  <text x="165" y="125" text-anchor="end" font-size="10" fill="#8E44AD">(규격 하한)</text>

  <!-- Control limits bracket (below) -->
  <line x1="240" y1="250" x2="660" y2="250" stroke="#E74C3C" stroke-width="2"/>
  <line x1="240" y1="244" x2="240" y2="256" stroke="#E74C3C" stroke-width="2"/>
  <line x1="660" y1="244" x2="660" y2="256" stroke="#E74C3C" stroke-width="2"/>
  <text x="450" y="268" text-anchor="middle" font-size="11" fill="#E74C3C" font-weight="600">관리 한계 (공정 데이터에서 산출)</text>
  <text x="450" y="283" text-anchor="middle" font-size="11" fill="#E74C3C">99.73% 데이터 포함</text>

  <!-- Margin arrows (right side: UCL → USL) -->
  <line x1="660" y1="170" x2="730" y2="170" stroke="#27AE60" stroke-width="2" marker-start="url(#arrowL)" marker-end="url(#arrowR)"/>
  <text x="695" y="160" text-anchor="middle" font-size="11" fill="#27AE60" font-weight="600">마진</text>
  <text x="695" y="148" text-anchor="middle" font-size="10" fill="#27AE60">(여유)</text>

  <!-- Margin arrows (left side: LSL → LCL) -->
  <line x1="170" y1="170" x2="240" y2="170" stroke="#27AE60" stroke-width="2" marker-start="url(#arrowL)" marker-end="url(#arrowR)"/>
  <text x="205" y="160" text-anchor="middle" font-size="11" fill="#27AE60" font-weight="600">마진</text>
  <text x="205" y="148" text-anchor="middle" font-size="10" fill="#27AE60">(여유)</text>

  <!-- Key message box -->
  <rect x="150" y="305" width="600" height="55" rx="8" fill="#F0F9FF" stroke="#3498DB" stroke-width="1.5"/>
  <text x="450" y="327" text-anchor="middle" font-size="12" fill="#2C3E50" font-weight="600">💡 이상적 상태</text>
  <text x="450" y="345" text-anchor="middle" font-size="12" fill="#2C3E50">관리 한계가 규격 한계 안에 충분한 여유를 가지고 들어온다</text>

  <!-- Legend -->
  <rect x="60" y="445" width="780" height="40" rx="6" fill="#F8F9FA" stroke="#E0E0E0" stroke-width="1"/>
  <line x1="80" y1="465" x2="110" y2="465" stroke="#E74C3C" stroke-width="2" stroke-dasharray="6,4"/>
  <text x="115" y="469" font-size="11" fill="#555">관리 한계 (UCL/LCL)</text>
  <line x1="280" y1="465" x2="310" y2="465" stroke="#8E44AD" stroke-width="2"/>
  <text x="315" y="469" font-size="11" fill="#555">규격 한계 (USL/LSL)</text>
  <rect x="470" y="459" width="14" height="14" fill="#3498DB" fill-opacity="0.3" stroke="#3498DB" stroke-width="1"/>
  <text x="490" y="469" font-size="11" fill="#555">공정 분포</text>
  <line x1="600" y1="465" x2="630" y2="465" stroke="#27AE60" stroke-width="2" marker-end="url(#arrowR)"/>
  <text x="635" y="469" font-size="11" fill="#555">마진 (여유 공간)</text>
</svg>