<?xml version="1.0" encoding="UTF-8"?>
<svg xmlns="http://www.w3.org/2000/svg" viewBox="0 0 1000 700" width="1000" height="700">
  <defs>
    <style>
      @import url('https://fonts.googleapis.com/css2?family=Noto+Sans+KR:wght@400;600;700&amp;display=swap');
      text { font-family: 'Noto Sans KR', 'Apple SD Gothic Neo', 'Malgun Gothic', sans-serif; }
    </style>
  </defs>

  <!-- Background -->
  <rect width="1000" height="700" fill="#FFFFFF" rx="8"/>

  <!-- Title -->
  <text x="500" y="35" text-anchor="middle" font-size="18" font-weight="700" fill="#2C3E50">WECO Rules — SPC 이상 패턴 4종</text>

  <!-- Panels -->
  <rect x="40" y="55" width="440" height="280" rx="8" fill="#FAFBFC" stroke="#DEE2E6" stroke-width="1.2"/>
  <text x="55" y="77" font-size="14" font-weight="700" fill="#2C3E50">Rule 1: 3σ 이탈</text>
  <rect x="400" y="63" width="68" height="20" rx="4" fill="#E74C3C" fill-opacity="0.15"/>
  <text x="434" y="77" text-anchor="middle" font-size="10" font-weight="600" fill="#E74C3C">Critical</text>
  <text x="55" y="95" font-size="10" fill="#7F8C8D">1개 점이 UCL/LCL 벗어남</text>
  <rect x="85" y="105" width="380" height="195" fill="#FFFFFF" stroke="#E0E0E0" stroke-width="0.5"/>
  <line x1="85" y1="202.5" x2="465" y2="202.5" stroke="#2C3E50" stroke-width="1.5"/>
  <text x="80" y="206.5" text-anchor="end" font-size="9" fill="#2C3E50">CL</text>
  <line x1="85" y1="129.375" x2="465" y2="129.375" stroke="#E74C3C" stroke-width="1" stroke-dasharray="6,3"/>
  <text x="80" y="133.375" text-anchor="end" font-size="8" fill="#E74C3C">+3σ</text>
  <line x1="85" y1="275.625" x2="465" y2="275.625" stroke="#E74C3C" stroke-width="1" stroke-dasharray="6,3"/>
  <text x="80" y="279.625" text-anchor="end" font-size="8" fill="#E74C3C">-3σ</text>
  <text x="468" y="133.375" font-size="8" fill="#E74C3C">UCL</text>
  <text x="468" y="279.625" font-size="8" fill="#E74C3C">LCL</text>
  <path d="M 85.0,197.625 L 132.5,214.6875 L 180.0,195.1875 L 227.5,183.0 L 275.0,212.25 L 322.5,200.0625 L 370.0,117.1875 L 417.5,197.625 L 465.0,209.8125" fill="none" stroke="#3498DB" stroke-width="1.5" stroke-opacity="0.6"/>
  <circle cx="85.0" cy="197.625" r="4" fill="#3498DB" stroke="#FFF" stroke-width="1"/>
  <circle cx="132.5" cy="214.6875" r="4" fill="#3498DB" stroke="#FFF" stroke-width="1"/>
  <circle cx="180.0" cy="195.1875" r="4" fill="#3498DB" stroke="#FFF" stroke-width="1"/>
  <circle cx="227.5" cy="183.0" r="4" fill="#3498DB" stroke="#FFF" stroke-width="1"/>
  <circle cx="275.0" cy="212.25" r="4" fill="#3498DB" stroke="#FFF" stroke-width="1"/>
  <circle cx="322.5" cy="200.0625" r="4" fill="#3498DB" stroke="#FFF" stroke-width="1"/>
  <circle cx="370.0" cy="117.1875" r="6" fill="#E74C3C" stroke="#FFF" stroke-width="1.5"/>
  <circle cx="417.5" cy="197.625" r="4" fill="#3498DB" stroke="#FFF" stroke-width="1"/>
  <circle cx="465.0" cy="209.8125" r="4" fill="#3498DB" stroke="#FFF" stroke-width="1"/>
  <text x="275.0" y="318" text-anchor="middle" font-size="9" fill="#7F8C8D">시간/로트 순서</text>
  <rect x="510" y="55" width="440" height="280" rx="8" fill="#FAFBFC" stroke="#DEE2E6" stroke-width="1.2"/>
  <text x="525" y="77" font-size="14" font-weight="700" fill="#2C3E50">Rule 2: 2σ 경고</text>
  <rect x="870" y="63" width="68" height="20" rx="4" fill="#F39C12" fill-opacity="0.15"/>
  <text x="904" y="77" text-anchor="middle" font-size="10" font-weight="600" fill="#F39C12">Warning</text>
  <text x="525" y="95" font-size="10" fill="#7F8C8D">연속 3개 중 2개가 같은 쪽 2σ~3σ</text>
  <rect x="555" y="105" width="380" height="195" fill="#FFFFFF" stroke="#E0E0E0" stroke-width="0.5"/>
  <line x1="555" y1="202.5" x2="935" y2="202.5" stroke="#2C3E50" stroke-width="1.5"/>
  <text x="550" y="206.5" text-anchor="end" font-size="9" fill="#2C3E50">CL</text>
  <line x1="555" y1="153.75" x2="935" y2="153.75" stroke="#F39C12" stroke-width="1" stroke-dasharray="4,3"/>
  <text x="550" y="157.75" text-anchor="end" font-size="8" fill="#F39C12">+2σ</text>
  <line x1="555" y1="129.375" x2="935" y2="129.375" stroke="#E74C3C" stroke-width="1" stroke-dasharray="6,3"/>
  <text x="550" y="133.375" text-anchor="end" font-size="8" fill="#E74C3C">+3σ</text>
  <line x1="555" y1="251.25" x2="935" y2="251.25" stroke="#F39C12" stroke-width="1" stroke-dasharray="4,3"/>
  <text x="550" y="255.25" text-anchor="end" font-size="8" fill="#F39C12">-2σ</text>
  <line x1="555" y1="275.625" x2="935" y2="275.625" stroke="#E74C3C" stroke-width="1" stroke-dasharray="6,3"/>
  <text x="550" y="279.625" text-anchor="end" font-size="8" fill="#E74C3C">-3σ</text>
  <text x="938" y="133.375" font-size="8" fill="#E74C3C">UCL</text>
  <text x="938" y="279.625" font-size="8" fill="#E74C3C">LCL</text>
  <path d="M 555.0,200.0625 L 602.5,195.1875 L 650.0,207.375 L 697.5,146.4375 L 745.0,190.3125 L 792.5,139.125 L 840.0,144.0 L 887.5,195.1875 L 935.0,204.9375" fill="none" stroke="#3498DB" stroke-width="1.5" stroke-opacity="0.6"/>
  <circle cx="555.0" cy="200.0625" r="4" fill="#3498DB" stroke="#FFF" stroke-width="1"/>
  <circle cx="602.5" cy="195.1875" r="4" fill="#3498DB" stroke="#FFF" stroke-width="1"/>
  <circle cx="650.0" cy="207.375" r="4" fill="#3498DB" stroke="#FFF" stroke-width="1"/>
  <circle cx="697.5" cy="146.4375" r="6" fill="#F39C12" stroke="#FFF" stroke-width="1.5"/>
  <circle cx="745.0" cy="190.3125" r="4" fill="#3498DB" stroke="#FFF" stroke-width="1"/>
  <circle cx="792.5" cy="139.125" r="6" fill="#F39C12" stroke="#FFF" stroke-width="1.5"/>
  <circle cx="840.0" cy="144.0" r="6" fill="#F39C12" stroke="#FFF" stroke-width="1.5"/>
  <circle cx="887.5" cy="195.1875" r="4" fill="#3498DB" stroke="#FFF" stroke-width="1"/>
  <circle cx="935.0" cy="204.9375" r="4" fill="#3498DB" stroke="#FFF" stroke-width="1"/>
  <text x="745.0" y="318" text-anchor="middle" font-size="9" fill="#7F8C8D">시간/로트 순서</text>
  <rect x="40" y="365" width="440" height="280" rx="8" fill="#FAFBFC" stroke="#DEE2E6" stroke-width="1.2"/>
  <text x="55" y="387" font-size="14" font-weight="700" fill="#2C3E50">Rule 3: 1σ 추세</text>
  <rect x="400" y="373" width="68" height="20" rx="4" fill="#F39C12" fill-opacity="0.15"/>
  <text x="434" y="387" text-anchor="middle" font-size="10" font-weight="600" fill="#F39C12">Warning</text>
  <text x="55" y="405" font-size="10" fill="#7F8C8D">연속 5개 중 4개가 같은 쪽 1σ밖</text>
  <rect x="85" y="415" width="380" height="195" fill="#FFFFFF" stroke="#E0E0E0" stroke-width="0.5"/>
  <line x1="85" y1="512.5" x2="465" y2="512.5" stroke="#2C3E50" stroke-width="1.5"/>
  <text x="80" y="516.5" text-anchor="end" font-size="9" fill="#2C3E50">CL</text>
  <line x1="85" y1="488.125" x2="465" y2="488.125" stroke="#95A5A6" stroke-width="1" stroke-dasharray="3,3"/>
  <text x="80" y="492.125" text-anchor="end" font-size="8" fill="#95A5A6">+1σ</text>
  <line x1="85" y1="536.875" x2="465" y2="536.875" stroke="#95A5A6" stroke-width="1" stroke-dasharray="3,3"/>
  <text x="80" y="540.875" text-anchor="end" font-size="8" fill="#95A5A6">-1σ</text>
  <line x1="85" y1="439.375" x2="465" y2="439.375" stroke="#E74C3C" stroke-width="0.8" stroke-dasharray="6,3" stroke-opacity="0.4"/>
  <text x="468" y="443.375" font-size="8" fill="#E74C3C" fill-opacity="0.6">UCL</text>
  <line x1="85" y1="585.625" x2="465" y2="585.625" stroke="#E74C3C" stroke-width="0.8" stroke-dasharray="6,3" stroke-opacity="0.4"/>
  <text x="468" y="589.625" font-size="8" fill="#E74C3C" fill-opacity="0.6">LCL</text>
  <path d="M 85.0,510.0625 L 132.5,483.25 L 180.0,493.0 L 227.5,475.9375 L 275.0,480.8125 L 322.5,468.625 L 370.0,485.6875 L 417.5,505.1875 L 465.0,517.375" fill="none" stroke="#3498DB" stroke-width="1.5" stroke-opacity="0.6"/>
  <circle cx="85.0" cy="510.0625" r="4" fill="#3498DB" stroke="#FFF" stroke-width="1"/>
  <circle cx="132.5" cy="483.25" r="6" fill="#E67E22" stroke="#FFF" stroke-width="1.5"/>
  <circle cx="180.0" cy="493.0" r="4" fill="#3498DB" stroke="#FFF" stroke-width="1"/>
  <circle cx="227.5" cy="475.9375" r="6" fill="#E67E22" stroke="#FFF" stroke-width="1.5"/>
  <circle cx="275.0" cy="480.8125" r="6" fill="#E67E22" stroke="#FFF" stroke-width="1.5"/>
  <circle cx="322.5" cy="468.625" r="6" fill="#E67E22" stroke="#FFF" stroke-width="1.5"/>
  <circle cx="370.0" cy="485.6875" r="6" fill="#E67E22" stroke="#FFF" stroke-width="1.5"/>
  <circle cx="417.5" cy="505.1875" r="4" fill="#3498DB" stroke="#FFF" stroke-width="1"/>
  <circle cx="465.0" cy="517.375" r="4" fill="#3498DB" stroke="#FFF" stroke-width="1"/>
  <text x="275.0" y="628" text-anchor="middle" font-size="9" fill="#7F8C8D">시간/로트 순서</text>
  <rect x="510" y="365" width="440" height="280" rx="8" fill="#FAFBFC" stroke="#DEE2E6" stroke-width="1.2"/>
  <text x="525" y="387" font-size="14" font-weight="700" fill="#2C3E50">Rule 4: 평균 이동 (Shift)</text>
  <rect x="870" y="373" width="68" height="20" rx="4" fill="#9B59B6" fill-opacity="0.15"/>
  <text x="904" y="387" text-anchor="middle" font-size="10" font-weight="600" fill="#9B59B6">Shift</text>
  <text x="525" y="405" font-size="10" fill="#7F8C8D">연속 8개가 CL 같은 쪽</text>
  <rect x="555" y="415" width="380" height="195" fill="#FFFFFF" stroke="#E0E0E0" stroke-width="0.5"/>
  <line x1="555" y1="512.5" x2="935" y2="512.5" stroke="#2C3E50" stroke-width="1.5"/>
  <text x="550" y="516.5" text-anchor="end" font-size="9" fill="#2C3E50">CL</text>
  <line x1="555" y1="439.375" x2="935" y2="439.375" stroke="#E74C3C" stroke-width="0.8" stroke-dasharray="6,3" stroke-opacity="0.4"/>
  <text x="938" y="443.375" font-size="8" fill="#E74C3C" fill-opacity="0.6">UCL</text>
  <line x1="555" y1="585.625" x2="935" y2="585.625" stroke="#E74C3C" stroke-width="0.8" stroke-dasharray="6,3" stroke-opacity="0.4"/>
  <text x="938" y="589.625" font-size="8" fill="#E74C3C" fill-opacity="0.6">LCL</text>
  <path d="M 555.0,505.1875 L 597.2222222222222,500.3125 L 639.4444444444445,493.0 L 681.6666666666666,507.625 L 723.8888888888889,497.875 L 766.1111111111111,502.75 L 808.3333333333333,490.5625 L 850.5555555555555,495.4375 L 892.7777777777778,485.6875 L 935.0,500.3125" fill="none" stroke="#3498DB" stroke-width="1.5" stroke-opacity="0.6"/>
  <circle cx="555.0" cy="505.1875" r="6" fill="#9B59B6" stroke="#FFF" stroke-width="1.5"/>
  <circle cx="597.2222222222222" cy="500.3125" r="6" fill="#9B59B6" stroke="#FFF" stroke-width="1.5"/>
  <circle cx="639.4444444444445" cy="493.0" r="6" fill="#9B59B6" stroke="#FFF" stroke-width="1.5"/>
  <circle cx="681.6666666666666" cy="507.625" r="6" fill="#9B59B6" stroke="#FFF" stroke-width="1.5"/>
  <circle cx="723.8888888888889" cy="497.875" r="6" fill="#9B59B6" stroke="#FFF" stroke-width="1.5"/>
  <circle cx="766.1111111111111" cy="502.75" r="6" fill="#9B59B6" stroke="#FFF" stroke-width="1.5"/>
  <circle cx="808.3333333333333" cy="490.5625" r="6" fill="#9B59B6" stroke="#FFF" stroke-width="1.5"/>
  <circle cx="850.5555555555555" cy="495.4375" r="6" fill="#9B59B6" stroke="#FFF" stroke-width="1.5"/>
  <circle cx="892.7777777777778" cy="485.6875" r="4" fill="#3498DB" stroke="#FFF" stroke-width="1"/>
  <circle cx="935.0" cy="500.3125" r="4" fill="#3498DB" stroke="#FFF" stroke-width="1"/>
  <text x="745.0" y="628" text-anchor="middle" font-size="9" fill="#7F8C8D">시간/로트 순서</text>

  <!-- Footer legend -->
  <rect x="150" y="658" width="700" height="30" rx="6" fill="#F8F9FA" stroke="#E0E0E0" stroke-width="1"/>
  <circle cx="180" cy="673" r="4" fill="#3498DB"/>
  <text x="190" y="677" font-size="10" fill="#555">정상 데이터</text>
  <circle cx="300" cy="673" r="5" fill="#E74C3C"/>
  <text x="310" y="677" font-size="10" fill="#555">이상 탐지</text>
  <line x1="410" y1="673" x2="440" y2="673" stroke="#2C3E50" stroke-width="1.5"/>
  <text x="445" y="677" font-size="10" fill="#555">CL (중심선)</text>
  <line x1="540" y1="673" x2="570" y2="673" stroke="#E74C3C" stroke-width="1" stroke-dasharray="6,3"/>
  <text x="575" y="677" font-size="10" fill="#555">관리 한계선</text>
  <text x="700" y="677" font-size="10" fill="#7F8C8D">Western Electric Rules (1956)</text>
</svg>