<?xml version="1.0" encoding="UTF-8"?>
<svg xmlns="http://www.w3.org/2000/svg" viewBox="0 0 700 450" width="700" height="450"
     font-family="Arial, 'Apple SD Gothic Neo', sans-serif">
  <defs>
    <marker id="arrowRed" markerWidth="10" markerHeight="7" refX="10" refY="3.5" orient="auto" fill="#e85d5d">
      <polygon points="0 0, 10 3.5, 0 7"/>
    </marker>
    <marker id="arrowBlue" markerWidth="10" markerHeight="7" refX="10" refY="3.5" orient="auto" fill="#5da0e8">
      <polygon points="0 0, 10 3.5, 0 7"/>
    </marker>
    <marker id="arrowDark" markerWidth="8" markerHeight="6" refX="8" refY="3" orient="auto" fill="#2c3e50">
      <polygon points="0 0, 8 3, 0 6"/>
    </marker>
    <filter id="glow">
      <feGaussianBlur stdDeviation="2" result="blur"/>
      <feMerge><feMergeNode in="blur"/><feMergeNode in="SourceGraphic"/></feMerge>
    </filter>
    <linearGradient id="bgGrad" x1="0" y1="0" x2="1" y2="1">
      <stop offset="0%" stop-color="#f8f9ff"/>
      <stop offset="100%" stop-color="#eef2ff"/>
    </linearGradient>
  </defs>
  <!-- Background -->
  <rect width="700" height="450" fill="url(#bgGrad)" rx="8"/>
  <!-- Title -->
  <text x="350" y="30" text-anchor="middle" font-size="16" font-weight="bold" fill="#2c3e50">채널링 현상 단면도 (Channeling Effect Cross-Section)</text>
  <rect x="130" y="179" width="530" height="32" fill="#f0f5ff" opacity="0.7" rx="4"/>
  <text x="665" y="197" font-size="9" fill="#7a8faa" text-anchor="start">Channel</text>
  <!-- Atoms (Rows at 55, 95, 135, 175...) -->
  <!-- Row 1 y=55 -->
  <circle cx="140" cy="55" r="7" fill="#4a90d9" opacity="0.85"/> <circle cx="138" cy="53" r="2" fill="white" opacity="0.4"/>
  <circle cx="180" cy="55" r="7" fill="#4a90d9" opacity="0.85"/> <circle cx="178" cy="53" r="2" fill="white" opacity="0.4"/>
  <circle cx="220" cy="55" r="7" fill="#4a90d9" opacity="0.85"/> <circle cx="218" cy="53" r="2" fill="white" opacity="0.4"/>
  <circle cx="260" cy="55" r="7" fill="#4a90d9" opacity="0.85"/> <circle cx="258" cy="53" r="2" fill="white" opacity="0.4"/>
  <circle cx="300" cy="55" r="7" fill="#4a90d9" opacity="0.85"/> <circle cx="298" cy="53" r="2" fill="white" opacity="0.4"/>
  <circle cx="340" cy="55" r="7" fill="#4a90d9" opacity="0.85"/> <circle cx="338" cy="53" r="2" fill="white" opacity="0.4"/>
  <circle cx="380" cy="55" r="7" fill="#4a90d9" opacity="0.85"/> <circle cx="378" cy="53" r="2" fill="white" opacity="0.4"/>
  <circle cx="420" cy="55" r="7" fill="#4a90d9" opacity="0.85"/> <circle cx="418" cy="53" r="2" fill="white" opacity="0.4"/>
  <circle cx="460" cy="55" r="7" fill="#4a90d9" opacity="0.85"/> <circle cx="458" cy="53" r="2" fill="white" opacity="0.4"/>
  <circle cx="500" cy="55" r="7" fill="#4a90d9" opacity="0.85"/> <circle cx="498" cy="53" r="2" fill="white" opacity="0.4"/>
  <circle cx="540" cy="55" r="7" fill="#4a90d9" opacity="0.85"/> <circle cx="538" cy="53" r="2" fill="white" opacity="0.4"/>
  <circle cx="580" cy="55" r="7" fill="#4a90d9" opacity="0.85"/> <circle cx="578" cy="53" r="2" fill="white" opacity="0.4"/>
  <circle cx="620" cy="55" r="7" fill="#4a90d9" opacity="0.85"/> <circle cx="618" cy="53" r="2" fill="white" opacity="0.4"/>
  <circle cx="660" cy="55" r="7" fill="#4a90d9" opacity="0.85"/> <circle cx="658" cy="53" r="2" fill="white" opacity="0.4"/>
  <!-- Row 2 y=95 -->
  <circle cx="140" cy="95" r="7" fill="#4a90d9" opacity="0.85"/> <circle cx="138" cy="93" r="2" fill="white" opacity="0.4"/>
  <circle cx="180" cy="95" r="7" fill="#4a90d9" opacity="0.85"/> <circle cx="178" cy="93" r="2" fill="white" opacity="0.4"/>
  <circle cx="220" cy="95" r="7" fill="#4a90d9" opacity="0.85"/> <circle cx="218" cy="93" r="2" fill="white" opacity="0.4"/>
  <circle cx="260" cy="95" r="7" fill="#4a90d9" opacity="0.85"/> <circle cx="258" cy="93" r="2" fill="white" opacity="0.4"/>
  <circle cx="300" cy="95" r="7" fill="#4a90d9" opacity="0.85"/> <circle cx="298" cy="93" r="2" fill="white" opacity="0.4"/>
  <circle cx="340" cy="95" r="7" fill="#4a90d9" opacity="0.85"/> <circle cx="338" cy="93" r="2" fill="white" opacity="0.4"/>
  <circle cx="380" cy="95" r="7" fill="#4a90d9" opacity="0.85"/> <circle cx="378" cy="93" r="2" fill="white" opacity="0.4"/>
  <circle cx="420" cy="95" r="7" fill="#4a90d9" opacity="0.85"/> <circle cx="418" cy="93" r="2" fill="white" opacity="0.4"/>
  <circle cx="460" cy="95" r="7" fill="#4a90d9" opacity="0.85"/> <circle cx="458" cy="93" r="2" fill="white" opacity="0.4"/>
  <circle cx="500" cy="95" r="7" fill="#4a90d9" opacity="0.85"/> <circle cx="498" cy="93" r="2" fill="white" opacity="0.4"/>
  <circle cx="540" cy="95" r="7" fill="#4a90d9" opacity="0.85"/> <circle cx="538" cy="93" r="2" fill="white" opacity="0.4"/>
  <circle cx="580" cy="95" r="7" fill="#4a90d9" opacity="0.85"/> <circle cx="578" cy="93" r="2" fill="white" opacity="0.4"/>
  <circle cx="620" cy="95" r="7" fill="#4a90d9" opacity="0.85"/> <circle cx="618" cy="93" r="2" fill="white" opacity="0.4"/>
  <circle cx="660" cy="95" r="7" fill="#4a90d9" opacity="0.85"/> <circle cx="658" cy="93" r="2" fill="white" opacity="0.4"/>
  <!-- Row 3 y=135 -->
  <circle cx="140" cy="135" r="7" fill="#4a90d9" opacity="0.85"/> <circle cx="138" cy="133" r="2" fill="white" opacity="0.4"/>
  <circle cx="180" cy="135" r="7" fill="#4a90d9" opacity="0.85"/> <circle cx="178" cy="133" r="2" fill="white" opacity="0.4"/>
  <circle cx="220" cy="135" r="7" fill="#4a90d9" opacity="0.85"/> <circle cx="218" cy="133" r="2" fill="white" opacity="0.4"/>
  <circle cx="260" cy="135" r="7" fill="#4a90d9" opacity="0.85"/> <circle cx="258" cy="133" r="2" fill="white" opacity="0.4"/>
  <circle cx="300" cy="135" r="7" fill="#4a90d9" opacity="0.85"/> <circle cx="298" cy="133" r="2" fill="white" opacity="0.4"/>
  <circle cx="340" cy="135" r="7" fill="#4a90d9" opacity="0.85"/> <circle cx="338" cy="133" r="2" fill="white" opacity="0.4"/>
  <circle cx="380" cy="135" r="7" fill="#4a90d9" opacity="0.85"/> <circle cx="378" cy="133" r="2" fill="white" opacity="0.4"/>
  <circle cx="420" cy="135" r="7" fill="#4a90d9" opacity="0.85"/> <circle cx="418" cy="133" r="2" fill="white" opacity="0.4"/>
  <circle cx="460" cy="135" r="7" fill="#4a90d9" opacity="0.85"/> <circle cx="458" cy="133" r="2" fill="white" opacity="0.4"/>
  <circle cx="500" cy="135" r="7" fill="#4a90d9" opacity="0.85"/> <circle cx="498" cy="133" r="2" fill="white" opacity="0.4"/>
  <circle cx="540" cy="135" r="7" fill="#4a90d9" opacity="0.85"/> <circle cx="538" cy="133" r="2" fill="white" opacity="0.4"/>
  <circle cx="580" cy="135" r="7" fill="#4a90d9" opacity="0.85"/> <circle cx="578" cy="133" r="2" fill="white" opacity="0.4"/>
  <circle cx="620" cy="135" r="7" fill="#4a90d9" opacity="0.85"/> <circle cx="618" cy="133" r="2" fill="white" opacity="0.4"/>
  <circle cx="660" cy="135" r="7" fill="#4a90d9" opacity="0.85"/> <circle cx="658" cy="133" r="2" fill="white" opacity="0.4"/>
  <!-- Row 4 y=175 -->
  <circle cx="140" cy="175" r="7" fill="#4a90d9" opacity="0.85"/> <circle cx="138" cy="173" r="2" fill="white" opacity="0.4"/>
  <circle cx="180" cy="175" r="7" fill="#4a90d9" opacity="0.85"/> <circle cx="178" cy="173" r="2" fill="white" opacity="0.4"/>
  <circle cx="220" cy="175" r="7" fill="#4a90d9" opacity="0.85"/> <circle cx="218" cy="173" r="2" fill="white" opacity="0.4"/>
  <circle cx="260" cy="175" r="7" fill="#4a90d9" opacity="0.85"/> <circle cx="258" cy="173" r="2" fill="white" opacity="0.4"/>
  <circle cx="300" cy="175" r="7" fill="#4a90d9" opacity="0.85"/> <circle cx="298" cy="173" r="2" fill="white" opacity="0.4"/>
  <circle cx="340" cy="175" r="7" fill="#4a90d9" opacity="0.85"/> <circle cx="338" cy="173" r="2" fill="white" opacity="0.4"/>
  <circle cx="380" cy="175" r="7" fill="#4a90d9" opacity="0.85"/> <circle cx="378" cy="173" r="2" fill="white" opacity="0.4"/>
  <circle cx="420" cy="175" r="7" fill="#4a90d9" opacity="0.85"/> <circle cx="418" cy="173" r="2" fill="white" opacity="0.4"/>
  <circle cx="460" cy="175" r="7" fill="#4a90d9" opacity="0.85"/> <circle cx="458" cy="173" r="2" fill="white" opacity="0.4"/>
  <circle cx="500" cy="175" r="7" fill="#4a90d9" opacity="0.85"/> <circle cx="498" cy="173" r="2" fill="white" opacity="0.4"/>
  <circle cx="540" cy="175" r="7" fill="#4a90d9" opacity="0.85"/> <circle cx="538" cy="173" r="2" fill="white" opacity="0.4"/>
  <circle cx="580" cy="175" r="7" fill="#4a90d9" opacity="0.85"/> <circle cx="578" cy="173" r="2" fill="white" opacity="0.4"/>
  <circle cx="620" cy="175" r="7" fill="#4a90d9" opacity="0.85"/> <circle cx="618" cy="173" r="2" fill="white" opacity="0.4"/>
  <circle cx="660" cy="175" r="7" fill="#4a90d9" opacity="0.85"/> <circle cx="658" cy="173" r="2" fill="white" opacity="0.4"/>
  <!-- Other rows (215, 255, 295, 335, 375) omitted for brevity as they are just background repetition -->
  <!-- ... actually keeping them to be safe as I am overwriting the file ... -->
  <!-- Row 5 y=215 -->
  <circle cx="140" cy="215" r="7" fill="#4a90d9" opacity="0.85"/> <circle cx="138" cy="213" r="2" fill="white" opacity="0.4"/>
  <circle cx="180" cy="215" r="7" fill="#4a90d9" opacity="0.85"/> <circle cx="178" cy="213" r="2" fill="white" opacity="0.4"/>
  <circle cx="220" cy="215" r="7" fill="#4a90d9" opacity="0.85"/> <circle cx="218" cy="213" r="2" fill="white" opacity="0.4"/>
  <circle cx="260" cy="215" r="7" fill="#4a90d9" opacity="0.85"/> <circle cx="258" cy="213" r="2" fill="white" opacity="0.4"/>
  <circle cx="300" cy="215" r="7" fill="#4a90d9" opacity="0.85"/> <circle cx="298" cy="213" r="2" fill="white" opacity="0.4"/>
  <circle cx="340" cy="215" r="7" fill="#4a90d9" opacity="0.85"/> <circle cx="338" cy="213" r="2" fill="white" opacity="0.4"/>
  <circle cx="380" cy="215" r="7" fill="#4a90d9" opacity="0.85"/> <circle cx="378" cy="213" r="2" fill="white" opacity="0.4"/>
  <circle cx="420" cy="215" r="7" fill="#4a90d9" opacity="0.85"/> <circle cx="418" cy="213" r="2" fill="white" opacity="0.4"/>
  <circle cx="460" cy="215" r="7" fill="#4a90d9" opacity="0.85"/> <circle cx="458" cy="213" r="2" fill="white" opacity="0.4"/>
  <circle cx="500" cy="215" r="7" fill="#4a90d9" opacity="0.85"/> <circle cx="498" cy="213" r="2" fill="white" opacity="0.4"/>
  <circle cx="540" cy="215" r="7" fill="#4a90d9" opacity="0.85"/> <circle cx="538" cy="213" r="2" fill="white" opacity="0.4"/>
  <circle cx="580" cy="215" r="7" fill="#4a90d9" opacity="0.85"/> <circle cx="578" cy="213" r="2" fill="white" opacity="0.4"/>
  <circle cx="620" cy="215" r="7" fill="#4a90d9" opacity="0.85"/> <circle cx="618" cy="213" r="2" fill="white" opacity="0.4"/>
  <circle cx="660" cy="215" r="7" fill="#4a90d9" opacity="0.85"/> <circle cx="658" cy="213" r="2" fill="white" opacity="0.4"/>
  <!-- Row 6 y=255 -->
  <circle cx="140" cy="255" r="7" fill="#4a90d9" opacity="0.85"/> <circle cx="138" cy="253" r="2" fill="white" opacity="0.4"/>
  <circle cx="180" cy="255" r="7" fill="#4a90d9" opacity="0.85"/> <circle cx="178" cy="253" r="2" fill="white" opacity="0.4"/>
  <circle cx="220" cy="255" r="7" fill="#4a90d9" opacity="0.85"/> <circle cx="218" cy="253" r="2" fill="white" opacity="0.4"/>
  <circle cx="260" cy="255" r="7" fill="#4a90d9" opacity="0.85"/> <circle cx="258" cy="253" r="2" fill="white" opacity="0.4"/>
  <circle cx="300" cy="255" r="7" fill="#4a90d9" opacity="0.85"/> <circle cx="298" cy="253" r="2" fill="white" opacity="0.4"/>
  <circle cx="340" cy="255" r="7" fill="#4a90d9" opacity="0.85"/> <circle cx="338" cy="253" r="2" fill="white" opacity="0.4"/>
  <circle cx="380" cy="255" r="7" fill="#4a90d9" opacity="0.85"/> <circle cx="378" cy="253" r="2" fill="white" opacity="0.4"/>
  <circle cx="420" cy="255" r="7" fill="#4a90d9" opacity="0.85"/> <circle cx="418" cy="253" r="2" fill="white" opacity="0.4"/>
  <circle cx="460" cy="255" r="7" fill="#4a90d9" opacity="0.85"/> <circle cx="458" cy="253" r="2" fill="white" opacity="0.4"/>
  <circle cx="500" cy="255" r="7" fill="#4a90d9" opacity="0.85"/> <circle cx="498" cy="253" r="2" fill="white" opacity="0.4"/>
  <circle cx="540" cy="255" r="7" fill="#4a90d9" opacity="0.85"/> <circle cx="538" cy="253" r="2" fill="white" opacity="0.4"/>
  <circle cx="580" cy="255" r="7" fill="#4a90d9" opacity="0.85"/> <circle cx="578" cy="253" r="2" fill="white" opacity="0.4"/>
  <circle cx="620" cy="255" r="7" fill="#4a90d9" opacity="0.85"/> <circle cx="618" cy="253" r="2" fill="white" opacity="0.4"/>
  <circle cx="660" cy="255" r="7" fill="#4a90d9" opacity="0.85"/> <circle cx="658" cy="253" r="2" fill="white" opacity="0.4"/>
  <!-- Row 7 y=295 -->
  <circle cx="140" cy="295" r="7" fill="#4a90d9" opacity="0.85"/> <circle cx="138" cy="293" r="2" fill="white" opacity="0.4"/>
  <circle cx="180" cy="295" r="7" fill="#4a90d9" opacity="0.85"/> <circle cx="178" cy="293" r="2" fill="white" opacity="0.4"/>
  <circle cx="220" cy="295" r="7" fill="#4a90d9" opacity="0.85"/> <circle cx="218" cy="293" r="2" fill="white" opacity="0.4"/>
  <circle cx="260" cy="295" r="7" fill="#4a90d9" opacity="0.85"/> <circle cx="258" cy="293" r="2" fill="white" opacity="0.4"/>
  <circle cx="300" cy="295" r="7" fill="#4a90d9" opacity="0.85"/> <circle cx="298" cy="293" r="2" fill="white" opacity="0.4"/>
  <circle cx="340" cy="295" r="7" fill="#4a90d9" opacity="0.85"/> <circle cx="338" cy="293" r="2" fill="white" opacity="0.4"/>
  <circle cx="380" cy="295" r="7" fill="#4a90d9" opacity="0.85"/> <circle cx="378" cy="293" r="2" fill="white" opacity="0.4"/>
  <circle cx="420" cy="295" r="7" fill="#4a90d9" opacity="0.85"/> <circle cx="418" cy="293" r="2" fill="white" opacity="0.4"/>
  <circle cx="460" cy="295" r="7" fill="#4a90d9" opacity="0.85"/> <circle cx="458" cy="293" r="2" fill="white" opacity="0.4"/>
  <circle cx="500" cy="295" r="7" fill="#4a90d9" opacity="0.85"/> <circle cx="498" cy="293" r="2" fill="white" opacity="0.4"/>
  <circle cx="540" cy="295" r="7" fill="#4a90d9" opacity="0.85"/> <circle cx="538" cy="293" r="2" fill="white" opacity="0.4"/>
  <circle cx="580" cy="295" r="7" fill="#4a90d9" opacity="0.85"/> <circle cx="578" cy="293" r="2" fill="white" opacity="0.4"/>
  <circle cx="620" cy="295" r="7" fill="#4a90d9" opacity="0.85"/> <circle cx="618" cy="293" r="2" fill="white" opacity="0.4"/>
  <circle cx="660" cy="295" r="7" fill="#4a90d9" opacity="0.85"/> <circle cx="658" cy="293" r="2" fill="white" opacity="0.4"/>
  <!-- Row 8 y=335 -->
  <circle cx="140" cy="335" r="7" fill="#4a90d9" opacity="0.85"/> <circle cx="138" cy="333" r="2" fill="white" opacity="0.4"/>
  <circle cx="180" cy="335" r="7" fill="#4a90d9" opacity="0.85"/> <circle cx="178" cy="333" r="2" fill="white" opacity="0.4"/>
  <circle cx="220" cy="335" r="7" fill="#4a90d9" opacity="0.85"/> <circle cx="218" cy="333" r="2" fill="white" opacity="0.4"/>
  <circle cx="260" cy="335" r="7" fill="#4a90d9" opacity="0.85"/> <circle cx="258" cy="333" r="2" fill="white" opacity="0.4"/>
  <circle cx="300" cy="335" r="7" fill="#4a90d9" opacity="0.85"/> <circle cx="298" cy="333" r="2" fill="white" opacity="0.4"/>
  <circle cx="340" cy="335" r="7" fill="#4a90d9" opacity="0.85"/> <circle cx="338" cy="333" r="2" fill="white" opacity="0.4"/>
  <circle cx="380" cy="335" r="7" fill="#4a90d9" opacity="0.85"/> <circle cx="378" cy="333" r="2" fill="white" opacity="0.4"/>
  <circle cx="420" cy="335" r="7" fill="#4a90d9" opacity="0.85"/> <circle cx="418" cy="333" r="2" fill="white" opacity="0.4"/>
  <circle cx="460" cy="335" r="7" fill="#4a90d9" opacity="0.85"/> <circle cx="458" cy="333" r="2" fill="white" opacity="0.4"/>
  <circle cx="500" cy="335" r="7" fill="#4a90d9" opacity="0.85"/> <circle cx="498" cy="333" r="2" fill="white" opacity="0.4"/>
  <circle cx="540" cy="335" r="7" fill="#4a90d9" opacity="0.85"/> <circle cx="538" cy="333" r="2" fill="white" opacity="0.4"/>
  <circle cx="580" cy="335" r="7" fill="#4a90d9" opacity="0.85"/> <circle cx="578" cy="333" r="2" fill="white" opacity="0.4"/>
  <circle cx="620" cy="335" r="7" fill="#4a90d9" opacity="0.85"/> <circle cx="618" cy="333" r="2" fill="white" opacity="0.4"/>
  <circle cx="660" cy="335" r="7" fill="#4a90d9" opacity="0.85"/> <circle cx="658" cy="333" r="2" fill="white" opacity="0.4"/>
  <!-- Row 9 y=375 -->
  <circle cx="140" cy="375" r="7" fill="#4a90d9" opacity="0.85"/> <circle cx="138" cy="373" r="2" fill="white" opacity="0.4"/>
  <circle cx="180" cy="375" r="7" fill="#4a90d9" opacity="0.85"/> <circle cx="178" cy="373" r="2" fill="white" opacity="0.4"/>
  <circle cx="220" cy="375" r="7" fill="#4a90d9" opacity="0.85"/> <circle cx="218" cy="373" r="2" fill="white" opacity="0.4"/>
  <circle cx="260" cy="375" r="7" fill="#4a90d9" opacity="0.85"/> <circle cx="258" cy="373" r="2" fill="white" opacity="0.4"/>
  <circle cx="300" cy="375" r="7" fill="#4a90d9" opacity="0.85"/> <circle cx="298" cy="373" r="2" fill="white" opacity="0.4"/>
  <circle cx="340" cy="375" r="7" fill="#4a90d9" opacity="0.85"/> <circle cx="338" cy="373" r="2" fill="white" opacity="0.4"/>
  <circle cx="380" cy="375" r="7" fill="#4a90d9" opacity="0.85"/> <circle cx="378" cy="373" r="2" fill="white" opacity="0.4"/>
  <circle cx="420" cy="375" r="7" fill="#4a90d9" opacity="0.85"/> <circle cx="418" cy="373" r="2" fill="white" opacity="0.4"/>
  <circle cx="460" cy="375" r="7" fill="#4a90d9" opacity="0.85"/> <circle cx="458" cy="373" r="2" fill="white" opacity="0.4"/>
  <circle cx="500" cy="375" r="7" fill="#4a90d9" opacity="0.85"/> <circle cx="498" cy="373" r="2" fill="white" opacity="0.4"/>
  <circle cx="540" cy="375" r="7" fill="#4a90d9" opacity="0.85"/> <circle cx="538" cy="373" r="2" fill="white" opacity="0.4"/>
  <circle cx="580" cy="375" r="7" fill="#4a90d9" opacity="0.85"/> <circle cx="578" cy="373" r="2" fill="white" opacity="0.4"/>
  <circle cx="620" cy="375" r="7" fill="#4a90d9" opacity="0.85"/> <circle cx="618" cy="373" r="2" fill="white" opacity="0.4"/>
  <circle cx="660" cy="375" r="7" fill="#4a90d9" opacity="0.85"/> <circle cx="658" cy="373" r="2" fill="white" opacity="0.4"/>

  <!-- Grid lines -->
  <line x1="140" y1="55" x2="660" y2="55" stroke="#e0e6ed" stroke-width="0.5" stroke-dasharray="3,3"/>
  <line x1="140" y1="375" x2="660" y2="375" stroke="#e0e6ed" stroke-width="0.5" stroke-dasharray="3,3"/>
  <line x1="140" y1="55" x2="140" y2="375" stroke="#e0e6ed" stroke-width="0.5" stroke-dasharray="3,3"/>
  <line x1="660" y1="55" x2="660" y2="375" stroke="#e0e6ed" stroke-width="0.5" stroke-dasharray="3,3"/>

  <text x="665" y="60" font-size="10" fill="#4a90d9" font-weight="bold">Si 원자</text>
  <text x="665" y="72" font-size="9" fill="#8899aa">(Lattice Atom)</text>
  
  <!-- Channeling path (Unchanged) -->
  <line x1="20" y1="195" x2="130" y2="195" stroke="#e85d5d" stroke-width="2.5" stroke-dasharray="6,3"/>
  <line x1="130" y1="195" x2="600" y2="195" stroke="#e85d5d" stroke-width="2.5" marker-end="url(#arrowRed)" filter="url(#glow)"/>
  <circle cx="30" cy="195" r="8" fill="#e85d5d" opacity="0.9"/>
  <text x="30" y="199" text-anchor="middle" font-size="8" fill="white" font-weight="bold">B⁺</text>
  <circle cx="605" cy="195" r="5" fill="#e85d5d" opacity="0.7"/>
  <text x="420" y="183" text-anchor="middle" font-size="11" fill="#e85d5d" font-weight="bold">채널링 경로 (Channeling Path)</text>
  <text x="580" y="215" text-anchor="middle" font-size="9" fill="#e85d5d">예상보다 깊이 침투!</text>
  
  <!-- Non-channeling path (FIXED) -->
  <!-- Target Atom 1: (180, 135). Hit at (175, 130). -->
  <!-- Target Atom 2: (220, 135). Hit at (225, 130). -->
  <path d="M 20 95.0 L 130 115.0 L 175 130.0 L 200 110.0 L 225 130.0 L 255 117.0" stroke="#5da0e8" stroke-width="2.5" fill="none" marker-end="url(#arrowBlue)"/>
  
  <circle cx="20" cy="95.0" r="8" fill="#5da0e8" opacity="0.9"/>
  <text x="20" y="99.0" text-anchor="middle" font-size="8" fill="white" font-weight="bold">B⁺</text>
  
  <!-- Collision 1 -->
  <circle cx="175" cy="130.0" r="6" fill="none" stroke="#ff9944" stroke-width="1.5" opacity="0.8"/>
  <circle cx="175" cy="130.0" r="10" fill="none" stroke="#ff9944" stroke-width="0.8" opacity="0.4"/>
  
  <!-- Collision 2 -->
  <circle cx="225" cy="130.0" r="6" fill="none" stroke="#ff9944" stroke-width="1.5" opacity="0.8"/>
  <circle cx="225" cy="130.0" r="10" fill="none" stroke="#ff9944" stroke-width="0.8" opacity="0.4"/>
  
  <text x="265" y="112.0" font-size="8" fill="#5da0e8" font-weight="bold">STOP</text>
  <text x="260" y="90.0" text-anchor="middle" font-size="11" fill="#5da0e8" font-weight="bold">비채널링 경로 (Non-Channeling)</text>
  <text x="260" y="143.0" text-anchor="middle" font-size="9" fill="#5da0e8">격자 원자와 충돌 → 설계대로 정지</text>
  
  <!-- Tilt Implant (Unchanged) -->
  <line x1="100" y1="345" x2="100" y2="410" stroke="#e0e6ed" stroke-width="1" stroke-dasharray="4,3"/>
  <text x="100" y="422" text-anchor="middle" font-size="8" fill="#8899aa">수직 입사</text>
  <line x1="106.70281388728311" y1="345.4099616597273" x2="98.65943722254337" y2="410.91800766805454" stroke="#2c3e50" stroke-width="2" marker-end="url(#arrowDark)"/>
  <path d="M 100 370 A 30 30 0 0 1 103.65608030215442 370.22361545076035" stroke="#e85d5d" stroke-width="1.5" fill="none"/>
  <text x="118" y="368" font-size="10" fill="#e85d5d" font-weight="bold">7°</text>
  <line x1="60" y1="410" x2="180" y2="410" stroke="#2c3e50" stroke-width="1.5"/>
  <text x="185" y="414" font-size="8" fill="#2c3e50">웨이퍼 표면</text>
  <text x="120" y="340" font-size="11" fill="#2c3e50" font-weight="bold">틸트 주입 (Tilt Implant)</text>
  <text x="120" y="353" font-size="9" fill="#667788">7° 비스듬히 입사 → 채널링 억제</text>
  <line x1="140" y1="365" x2="660" y2="365" stroke="#2c3e50" stroke-width="1" marker-end="url(#arrowDark)"/>
  <text x="400" y="380" text-anchor="middle" font-size="10" fill="#2c3e50">깊이 (Depth) →</text>
  <!-- Legend -->
  <rect x="430" y="370" width="250" height="70" fill="white" stroke="#e0e6ed" stroke-width="1" rx="6" opacity="0.9"/>
  <text x="440" y="386" font-size="10" fill="#2c3e50" font-weight="bold">범례 (Legend)</text>
  <circle cx="450" cy="402" r="5" fill="#4a90d9"/>
  <text x="462" y="406" font-size="9" fill="#2c3e50">Si 격자 원자 (Lattice Atom)</text>
  <line x1="440" y1="418" x2="460" y2="418" stroke="#e85d5d" stroke-width="2"/>
  <text x="462" y="422" font-size="9" fill="#2c3e50">채널링 경로 (Channeling)</text>
  <line x1="440" y1="432" x2="460" y2="432" stroke="#5da0e8" stroke-width="2"/>
  <text x="462" y="436" font-size="9" fill="#2c3e50">비채널링 경로 (Non-Channeling)</text>
  <rect x="580" y="397" width="14" height="14" fill="#f0f5ff" stroke="#e0e6ed" stroke-width="0.5"/>
  <text x="600" y="408" font-size="9" fill="#2c3e50">채널 공간</text>
</svg>